<?xml version="1.0" encoding="UTF-8" standalone="no"?>
<!DOCTYPE svg PUBLIC "-//W3C//DTD SVG 1.1//EN" "http://www.w3.org/Graphics/SVG/1.1/DTD/svg11.dtd">
<!-- Created with Vectornator (http://vectornator.io/) -->
<svg height="100%" stroke-miterlimit="10" style="fill-rule:nonzero;clip-rule:evenodd;stroke-linecap:round;stroke-linejoin:round;" version="1.1" viewBox="0 0 200 160" width="100%" xml:space="preserve" xmlns="http://www.w3.org/2000/svg" xmlns:xlink="http://www.w3.org/1999/xlink">
<defs/>
<clipPath id="ArtboardFrame">
<rect height="160" width="200" x="0" y="0"/>
</clipPath>
<g clip-path="url(#ArtboardFrame)" id="Layer-1">
<g opacity="1">
<g opacity="1">
<path d="M42.6659 27.2887L101.126 130.352C102.987 133.632 105.319 136.077 108.123 137.686C110.926 139.295 113.923 140.065 117.113 139.996C120.302 139.926 123.403 139.058 126.414 137.392C127.787 136.633 129.039 135.711 130.169 134.626C131.299 133.541 132.308 132.293 133.195 130.883L197.241 27.6192C199.099 24.6377 200.019 21.5146 200 18.2499C199.981 14.9852 199.202 11.997 197.664 9.28542C196.126 6.5738 193.946 4.34647 191.125 2.60341C188.303 0.860351 185.12-0.00743569 181.575 4.79898e-05L58.9277 0.10607C55.4519 0.13279 52.4076 0.868899 49.7947 2.3144C46.7833 3.9804 44.4208 6.14931 42.7072 8.82114C40.9935 11.493 40.0931 14.4188 40.0059 17.5986C39.9186 20.7785 40.8053 24.0085 42.6659 27.2887Z" fill="#363b3f" fill-rule="nonzero" opacity="1" stroke="none"/>
</g>
<g opacity="1">
<path d="M18.9607 160L141.039 160C144.925 160 148.292 159.199 151.141 157.596C153.991 155.994 156.179 153.825 157.708 151.088C159.236 148.352 160 145.307 160 141.955C160 140.426 159.793 138.922 159.378 137.443C158.964 135.964 158.342 134.51 157.513 133.08L96.3575 29.1706C94.5961 26.1631 92.239 23.8827 89.2861 22.3296C86.3332 20.7765 83.2508 20 80.0389 20C76.8269 20 73.7316 20.7765 70.7528 22.3296C67.774 23.8827 65.4039 26.1631 63.6425 29.1706L2.56435 133.154C0.854784 136.112 0 139.046 0 141.955C0 145.307 0.777076 148.352 2.33123 151.088C3.88538 153.825 6.07415 155.994 8.89752 157.596C11.7209 159.199 15.0753 160 18.9607 160Z" fill="#5ccb80" fill-opacity="0.8" fill-rule="nonzero" opacity="1" stroke="none"/>
</g>
</g>
</g>
</svg>
